<svg viewBox="-71 0 512 512" xmlns="http://www.w3.org/2000/svg"><path d="m356.589844 512h-343.097656c-7.453126 0-13.492188-6.039062-13.492188-13.492188v-433.070312c0-7.453125 6.039062-13.492188 13.492188-13.492188h343.097656c7.449218 0 13.492187 6.039063 13.492187 13.492188v433.070312c0 7.453126-6.042969 13.492188-13.492187 13.492188zm0 0" fill="#fa9f6a"/><path d="m38.59375 498.507812v-433.070312c0-7.453125 6.042969-13.492188 13.492188-13.492188h-38.59375c-7.453126 0-13.492188 6.039063-13.492188 13.492188v433.070312c0 7.453126 6.039062 13.492188 13.492188 13.492188h38.59375c-7.453126 0-13.492188-6.039062-13.492188-13.492188zm0 0" fill="#eb8f59"/><path d="m38.59375 461.621094v-359.296875c0-6.507813 5.277344-11.785157 11.785156-11.785157h269.324219c6.507813 0 11.785156 5.277344 11.785156 11.785157v257.726562l-113.359375 113.355469h-167.75c-6.507812 0-11.785156-5.277344-11.785156-11.785156zm0 0" fill="#efedee"/><path d="m69.5 461.621094v-359.296875c0-6.507813 5.273438-11.785157 11.785156-11.785157h-30.90625c-6.507812 0-11.785156 5.277344-11.785156 11.785157v359.296875c0 6.511718 5.277344 11.785156 11.785156 11.785156h30.90625c-6.511718 0-11.785156-5.277344-11.785156-11.785156zm0 0" fill="#d9d7d8"/><path d="m257.265625 34.015625h-38.773437c0-18.785156-15.230469-34.015625-34.019532-34.015625-18.785156 0-34.015625 15.230469-34.015625 34.015625h-38.773437c-6.472656 0-11.714844 5.246094-11.714844 11.714844v51.019531c0 6.46875 5.242188 11.714844 11.714844 11.714844h145.582031c6.46875 0 11.714844-5.242188 11.714844-11.714844v-51.019531c0-6.46875-5.246094-11.714844-11.714844-11.714844zm-72.792969 10.027344c-5.535156 0-10.023437-4.488281-10.023437-10.027344 0-5.535156 4.488281-10.023437 10.023437-10.023437 5.539063 0 10.027344 4.488281 10.027344 10.023437 0 5.539063-4.488281 10.027344-10.027344 10.027344zm0 0" fill="#fadc60"/><path d="m130.871094 96.75v-51.019531c0-6.46875 5.246094-11.714844 11.714844-11.714844h-30.902344c-6.472656 0-11.714844 5.246094-11.714844 11.714844v51.019531c0 6.46875 5.242188 11.714844 11.714844 11.714844h30.902344c-6.46875 0-11.714844-5.242188-11.714844-11.714844zm0 0" fill="#e6cb59"/><path d="m229.914062 360.046875h101.574219l-113.359375 113.359375v-101.570312c0-6.511719 5.277344-11.789063 11.785156-11.789063zm0 0" fill="#d9d7d8"/><g fill="#464c51"><path d="m119.429688 237.152344c-9.207032 0-17.777344-4.964844-22.371094-12.953125-2.0625-3.589844-.828125-8.175781 2.765625-10.238281 3.589843-2.066407 8.171875-.828126 10.238281 2.765624 1.925781 3.347657 5.515625 5.425782 9.367188 5.425782 3.851562 0 7.441406-2.078125 9.367187-5.425782 2.066406-3.59375 6.648437-4.828124 10.238281-2.765624 3.59375 2.066406 4.828125 6.648437 2.765625 10.242187-4.59375 7.984375-13.164062 12.949219-22.371093 12.949219zm0 0"/><path d="m250.652344 237.152344c-9.207032 0-17.777344-4.964844-22.371094-12.953125-2.0625-3.589844-.828125-8.175781 2.765625-10.238281 3.589844-2.066407 8.175781-.828126 10.238281 2.765624 1.925782 3.347657 5.515625 5.425782 9.367188 5.425782 3.855468 0 7.441406-2.078125 9.367187-5.425782 2.066407-3.59375 6.652344-4.828124 10.242188-2.765624 3.589843 2.066406 4.828125 6.648437 2.761719 10.242187-4.59375 7.984375-13.164063 12.949219-22.371094 12.949219zm0 0"/><path d="m185.039062 261.066406c-9.78125 0-17.714843-7.929687-17.714843-17.71875v-13.285156h35.433593v13.285156c0 9.789063-7.933593 17.71875-17.71875 17.71875zm0 0"/></g><path d="m256.5 260.519531h-11.695312c-4.144532 0-7.5-3.355469-7.5-7.5 0-4.140625 3.355468-7.5 7.5-7.5h11.695312c4.144531 0 7.5 3.359375 7.5 7.5 0 4.144531-3.355469 7.5-7.5 7.5zm0 0" fill="#fd6f71"/><path d="m125.277344 260.519531h-11.699219c-4.140625 0-7.5-3.355469-7.5-7.5 0-4.140625 3.359375-7.5 7.5-7.5h11.699219c4.144531 0 7.5 3.359375 7.5 7.5 0 4.144531-3.355469 7.5-7.5 7.5zm0 0" fill="#fd6f71"/></svg>