<svg viewBox="-14 0 512 512.002" xmlns="http://www.w3.org/2000/svg"><path d="m85.335938 380.890625c-25.28125 0-45.777344 20.496094-45.777344 45.773437 0 25.28125 20.496094 45.777344 45.777344 45.777344h374.65625v-91.550781zm0 0" fill="#efedee"/><path d="m74.886719 426.667969c0-25.28125 20.496093-45.777344 45.777343-45.777344h-35.328124c-25.28125 0-45.777344 20.496094-45.777344 45.777344s20.496094 45.773437 45.777344 45.773437h35.328124c-25.28125 0-45.777343-20.492187-45.777343-45.773437zm0 0" fill="#d9d7d8"/><path d="m85.335938 380.890625h378.441406c10.921875 0 19.78125-8.855469 19.78125-19.777344 0-10.925781-8.855469-19.777343-19.78125-19.777343h-384.4375c-43.816406 0-79.339844 35.519531-79.339844 79.335937v11.992187c0 43.816407 35.523438 79.339844 79.339844 79.339844h384.4375c10.921875 0 19.78125-8.855468 19.78125-19.78125 0-10.921875-8.855469-19.777344-19.78125-19.777344h-378.441406c-25.28125 0-45.777344-20.496093-45.777344-45.773437 0-25.285156 20.496094-45.78125 45.777344-45.78125zm0 0" fill="#fd6f71"/><path d="m125.121094 210.222656c-25.28125 0-45.773438 20.496094-45.773438 45.777344s20.492188 45.777344 45.773438 45.777344h295.082031v-91.554688zm0 0" fill="#efedee"/><path d="m114.675781 256c0-25.28125 20.496094-45.777344 45.773438-45.777344h-35.328125c-25.28125 0-45.773438 20.496094-45.773438 45.777344s20.492188 45.777344 45.773438 45.777344h35.328125c-25.277344 0-45.773438-20.496094-45.773438-45.777344zm0 0" fill="#d9d7d8"/><path d="m125.121094 210.222656h298.867187c10.925781 0 19.78125-8.855468 19.78125-19.777344 0-10.921874-8.855469-19.777343-19.78125-19.777343h-304.859375c-43.820312 0-79.339844 35.519531-79.339844 79.339843v11.988282c0 43.816406 35.519532 79.339844 79.339844 79.339844h304.863282c10.921874 0 19.777343-8.855469 19.777343-19.78125 0-10.921876-8.855469-19.777344-19.777343-19.777344h-298.871094c-25.28125 0-45.773438-20.496094-45.773438-45.773438 0-25.28125 20.492188-45.78125 45.773438-45.78125zm0 0" fill="#58b78c"/><path d="m170.59375 39.558594c-25.28125 0-45.777344 20.492187-45.777344 45.773437s20.496094 45.777344 45.777344 45.777344h204.140625v-91.550781zm0 0" fill="#efedee"/><path d="m160.148438 85.332031c0-25.28125 20.492187-45.773437 45.773437-45.773437h-35.328125c-25.28125 0-45.777344 20.492187-45.777344 45.773437s20.496094 45.777344 45.777344 45.777344h35.328125c-25.28125 0-45.773437-20.496094-45.773437-45.777344zm0 0" fill="#d9d7d8"/><path d="m170.59375 39.558594h207.925781c10.921875 0 19.777344-8.855469 19.777344-19.78125 0-10.921875-8.855469-19.777344-19.777344-19.777344h-213.921875c-43.816406 0-79.335937 35.519531-79.335937 79.339844v11.988281c0 43.820313 35.519531 79.339844 79.335937 79.339844h213.921875c10.921875 0 19.777344-8.855469 19.777344-19.777344s-8.855469-19.777344-19.777344-19.777344h-207.925781c-25.28125 0-45.777344-20.496093-45.777344-45.777343s20.496094-45.777344 45.777344-45.777344zm0 0" fill="#fadc60"/><g fill="#bab8b9"><path d="m374.734375 77.605469h-249.253906c-.425781 2.515625-.664063 5.09375-.664063 7.730469 0 2.632812.238282 5.210937.664063 7.722656h249.253906zm0 0"/><path d="m420.203125 248.273438h-340.195313c-.425781 2.511718-.660156 5.09375-.660156 7.726562 0 2.636719.234375 5.214844.660156 7.726562h340.195313zm0 0"/><path d="m459.992188 418.941406h-419.769532c-.429687 2.511719-.664062 5.089844-.664062 7.726563 0 2.632812.234375 5.214843.664062 7.726562h419.769532zm0 0"/></g></svg>