<svg viewBox="-60 0 512 512" xmlns="http://www.w3.org/2000/svg"><path d="m391.679688 15.761719v480.476562c0 8.707031-7.054688 15.761719-15.757813 15.761719h-360.160156c-8.707031 0-15.761719-7.054688-15.761719-15.761719v-344.648437l151.589844-151.589844h224.332031c8.703125 0 15.757813 7.054688 15.757813 15.761719zm0 0" fill="#efedee"/><path d="m135.828125 151.589844h-135.828125l151.589844-151.589844v135.832031c0 8.703125-7.054688 15.757813-15.761719 15.757813zm0 0" fill="#d9d7d8"/><path d="m224.953125 211.148438c-.097656-.285157-.210937-1.042969-.335937-2.273438l-4.753907-139.136719c-.070312-2.796875 1.222657-5.429687 3.878907-7.890625 2.65625-2.464844 5.988281-4.386718 9.988281-5.765625 4-1.378906 7.863281-1.851562 11.59375-1.425781 3.730469.429688 6.476562 1.90625 8.242187 4.429688l82.007813 112.496093c.632812.976563.996093 1.597657 1.089843 1.863281 1.011719 2.933594.085938 6.089844-2.777343 9.460938-2.863281 3.378906-6.164063 5.710938-9.898438 6.996094-4.933593 1.703125-8.464843.984375-10.59375-2.164063l-16.78125-23.980469-42.851562 14.785157 1.726562 29.191406c.140625 3.820313-2.566406 6.6875-8.125 8.605469-4.355469 1.5-8.898437 1.835937-13.625.992187-4.726562-.84375-7.652343-2.902343-8.785156-6.183593zm27.480469-54.976563 34.589844-11.933594-38.585938-55.402343zm0 0" fill="#fd6f71"/><path d="m278.980469 72.40625c-.707031-2.050781-.789063-3.941406-.234375-5.679688.554687-1.734374 1.667968-2.894531 3.351562-3.476562l15.007813-5.175781-5.300781-15.375c-.535157-1.546875-.265626-3.179688.816406-4.90625 1.078125-1.722657 2.648437-2.941407 4.703125-3.652344 2.152343-.742187 4.136719-.75 5.957031-.023437 1.820312.726562 2.996094 1.859374 3.527344 3.40625l5.304687 15.375 14.867188-5.128907c1.492187-.515625 3.097656-.269531 4.804687.734375 1.707032 1.007813 2.898438 2.492188 3.578125 4.453125.707031 2.050781.703125 3.945313-.003906 5.683594-.707031 1.742187-1.855469 2.886719-3.445313 3.433594l-14.867187 5.128906 5.355469 15.519531c.597656 1.738282.402344 3.375-.582032 4.90625-.992187 1.53125-2.605468 2.683594-4.851562 3.457032-2.152344.742187-4.132812.835937-5.949219.269531-1.816406-.5625-3.027343-1.714844-3.625-3.457031l-5.355469-15.515626-15.003906 5.175782c-1.683594.582031-3.261718.402344-4.738281-.535156-1.472656-.9375-2.578125-2.476563-3.316406-4.617188zm0 0" fill="#fd6f71"/><g fill="#464c51"><path d="m146.988281 288.226562c-2.59375.003907-5.121093-1.347656-6.507812-3.761718-1.921875-3.347656-5.511719-5.425782-9.367188-5.425782-3.851562 0-7.441406 2.078126-9.367187 5.425782-2.0625 3.589844-6.648438 4.832031-10.238282 2.765625-3.589843-2.066407-4.828124-6.648438-2.765624-10.242188 4.59375-7.984375 13.164062-12.949219 22.371093-12.949219s17.78125 4.964844 22.371094 12.949219c2.066406 3.59375.828125 8.175781-2.761719 10.242188-1.179687.675781-2.464844.996093-3.734375.996093zm0 0"/><path d="m196.726562 312.144531c-9.785156 0-17.71875-7.933593-17.71875-17.71875v-13.289062h35.4375v13.289062c0 9.785157-7.933593 17.71875-17.71875 17.71875zm0 0"/><path d="m262.339844 289.480469c-4.144532 0-7.5-3.355469-7.5-7.5v-11.699219c0-4.140625 3.355468-7.5 7.5-7.5 4.140625 0 7.5 3.359375 7.5 7.5v11.699219c0 4.144531-3.359375 7.5-7.5 7.5zm0 0"/></g><path d="m268.1875 311.597656h-11.699219c-4.140625 0-7.5-3.359375-7.5-7.5 0-4.144531 3.359375-7.5 7.5-7.5h11.699219c4.144531 0 7.5 3.355469 7.5 7.5 0 4.140625-3.359375 7.5-7.5 7.5zm0 0" fill="#fd6f71"/><path d="m136.964844 311.597656h-11.699219c-4.144531 0-7.5-3.359375-7.5-7.5 0-4.144531 3.355469-7.5 7.5-7.5h11.699219c4.140625 0 7.5 3.355469 7.5 7.5 0 4.140625-3.359375 7.5-7.5 7.5zm0 0" fill="#fd6f71"/></svg>