<svg viewBox="-51 0 512 512.001" xmlns="http://www.w3.org/2000/svg"><path d="m42.332031 512c0-89.992188 72.953125-162.945312 162.949219-162.945312 89.992188 0 162.945312 72.953124 162.945312 162.945312zm0 0" fill="#fa9f6a"/><path d="m220.734375 349.789062c-5.089844-.480468-10.242187-.734374-15.453125-.734374-89.996094 0-162.949219 72.953124-162.949219 162.945312h30.90625c0-84.78125 64.75-154.425781 147.496094-162.210938zm0 0" fill="#eb8f59"/><path d="m410.558594 203.722656c0 19.523438-15.828125 35.351563-35.351563 35.351563-19.523437 0-35.351562-15.828125-35.351562-35.351563 0-19.527344 15.828125-35.355468 35.351562-35.355468 19.523438 0 35.351563 15.828124 35.351563 35.355468zm0 0" fill="#cc9883"/><path d="m70.703125 203.722656c0 19.523438-15.828125 35.351563-35.351563 35.351563-19.523437 0-35.351562-15.828125-35.351562-35.351563 0-19.527344 15.828125-35.355468 35.351562-35.355468 19.523438 0 35.351563 15.828124 35.351563 35.355468zm0 0" fill="#cc9883"/><path d="m204.285156 327.550781h-68.046875l37.664063 117.460938c4.230468 13.207031 16.511718 22.164062 30.382812 22.164062 13.867188 0 26.148438-8.957031 30.382813-22.164062l37.660156-117.460938zm0 0" fill="#d9d7d8"/><path d="m204.285156 467.175781c9.546875 0 18.339844-4.246093 24.273438-11.199219l-23.667969-52.382812-24.277344 53.039062c5.917969 6.554688 14.433594 10.542969 23.671875 10.542969zm0 0" fill="#e36465"/><path d="m146.992188 361.082031 10.875 33.921875c9.945312 3.894532 26.304687 8.589844 47.414062 8.589844 19.574219 0 35.0625-4.039062 45.144531-7.734375l13.144531-40.988281v-.074219h-116.578124zm0 0" fill="#efedee"/><path d="m383.621094 193.796875c0 98.492187-79.847656 178.339844-178.339844 178.339844-98.496094 0-178.339844-79.847657-178.339844-178.339844 0-98.496094 79.84375-178.339844 178.339844-178.339844 98.492188 0 178.339844 79.84375 178.339844 178.339844zm0 0" fill="#fbc4ac"/><path d="m57.851562 193.796875c0-93.285156 71.628907-169.828125 162.886719-177.664063-5.097656-.441406-10.25-.675781-15.457031-.675781-98.496094 0-178.339844 79.84375-178.339844 178.339844s79.84375 178.339844 178.339844 178.339844c5.207031 0 10.359375-.238281 15.457031-.671875-91.257812-7.839844-162.886719-84.382813-162.886719-177.667969zm0 0" fill="#e3b098"/><path d="m205.28125 15.457031c-98.496094 0-178.339844 79.84375-178.339844 178.339844 0 .625.015625 1.246094.023438 1.871094 2.222656.179687 4.566406.296875 7.042968.296875 19.496094 0 53.824219-6.917969 78.582032-49.886719 17.136718 9.3125 47.84375 21.238281 92.71875 21.238281s75.582031-11.925781 92.71875-21.238281c24.757812 42.96875 59.082031 49.882813 78.578125 49.886719h.003906c2.457031 0 4.78125-.113282 6.984375-.292969.007812-.625.023438-1.246094.023438-1.875.003906-98.496094-79.84375-178.339844-178.335938-178.339844zm0 0" fill="#e3b098"/><path d="m239.140625 282.210938h-67.722656c-3.621094 0-6.554688-2.933594-6.554688-6.554688v-11.359375c0-22.320313 18.09375-40.414063 40.417969-40.414063 22.320312 0 40.414062 18.09375 40.414062 40.414063v11.359375c0 3.617188-2.933593 6.554688-6.554687 6.554688zm0 0" fill="#efedee"/><path d="m195.777344 275.65625v-11.359375c0-16.84375 10.308594-31.277344 24.960937-37.347656-4.765625-1.972657-9.984375-3.066407-15.457031-3.066407-22.324219 0-40.417969 18.09375-40.417969 40.414063v11.359375c0 3.621094 2.933594 6.554688 6.554688 6.554688h30.914062c-3.621093 0-6.554687-2.9375-6.554687-6.554688zm0 0" fill="#d9d7d8"/><path d="m196.132812 424.074219-11.335937-11.332031c-5.050781-5.054688-5.050781-13.246094 0-18.296876l11.335937-11.335937c5.050782-5.050781 13.242188-5.050781 18.292969 0l11.335938 11.335937c5.054687 5.050782 5.054687 13.242188 0 18.296876l-11.335938 11.332031c-5.050781 5.054687-13.242187 5.054687-18.292969 0zm0 0" fill="#fd6f71"/><path d="m205.335938 0h-.054688c-101.207031 0-184.542969 77.980469-193.078125 177.011719 0 0 61.039063 23.902343 94.300781-53.316407 0 0 31.785156 28.164063 98.804688 28.164063 67.019531 0 98.804687-28.164063 98.804687-28.164063 33.261719 77.21875 94.300781 53.316407 94.300781 53.316407-8.535156-99.03125-91.871093-177.011719-193.078124-177.011719zm0 0" fill="#efedee"/><path d="m220.9375.632812c-5.148438-.410156-10.347656-.632812-15.601562-.632812h-.054688c-101.207031 0-184.542969 77.980469-193.078125 177.011719 0 0 13.386719 5.242187 31.042969 2.882812 3.445312-95.546875 84.734375-171.664062 177.691406-179.261719zm0 0" fill="#d9d7d8"/><path d="m271.464844 223.421875c-4.140625 0-7.5-3.355469-7.5-7.5v-11.800781c0-4.140625 3.359375-7.5 7.5-7.5s7.5 3.359375 7.5 7.5v11.800781c0 4.144531-3.359375 7.5-7.5 7.5zm0 0" fill="#464c51"/><path d="m139.09375 223.421875c-4.140625 0-7.5-3.355469-7.5-7.5v-11.800781c0-4.140625 3.359375-7.5 7.5-7.5 4.144531 0 7.5 3.359375 7.5 7.5v11.800781c0 4.144531-3.355469 7.5-7.5 7.5zm0 0" fill="#464c51"/><g fill="#fd6f71"><path d="m277.363281 245.730469h-11.796875c-4.144531 0-7.5-3.359375-7.5-7.5s3.355469-7.5 7.5-7.5h11.796875c4.144531 0 7.5 3.359375 7.5 7.5s-3.355469 7.5-7.5 7.5zm0 0"/><path d="m144.996094 245.730469h-11.800782c-4.144531 0-7.5-3.359375-7.5-7.5s3.355469-7.5 7.5-7.5h11.800782c4.140625 0 7.5 3.359375 7.5 7.5s-3.359375 7.5-7.5 7.5zm0 0"/></g></svg>