<svg viewBox="-5 0 511 512" xmlns="http://www.w3.org/2000/svg"><path d="m41.554688 0v.015625c-22.671876 0-41.054688 18.367187-41.054688 41.039063v38.007812c0 3.613281 2.929688 6.542969 6.539062 6.542969h324.261719c3.265625 0 5.914063-2.648438 5.914063-5.914063v-79.691406zm0 0" fill="#bab8b9"/><path d="m123.730469 512v-.015625c-22.671875 0-41.054688-18.367187-41.054688-41.039063v-429.890624c0-22.671876-18.378906-41.039063-41.054687-41.039063h41.054687v-.015625h328.542969c22.851562 0 41.375 18.523438 41.375 41.375v470.625zm0 0" fill="#efedee"/><g fill="#d9d7d8"><path d="m391.03125 93.105469h-246.796875c-4.140625 0-7.5-3.359375-7.5-7.5 0-4.144531 3.359375-7.5 7.5-7.5h246.796875c4.144531 0 7.5 3.355469 7.5 7.5 0 4.140625-3.355469 7.5-7.5 7.5zm0 0"/><path d="m391.03125 171.839844h-246.796875c-4.140625 0-7.5-3.359375-7.5-7.5 0-4.144532 3.359375-7.5 7.5-7.5h246.796875c4.144531 0 7.5 3.355468 7.5 7.5 0 4.140625-3.355469 7.5-7.5 7.5zm0 0"/><path d="m351.707031 250.570312h-207.472656c-4.140625 0-7.5-3.355468-7.5-7.5 0-4.140624 3.359375-7.5 7.5-7.5h207.472656c4.144531 0 7.5 3.359376 7.5 7.5 0 4.144532-3.355469 7.5-7.5 7.5zm0 0"/><path d="m290.199219 329.304688h-145.964844c-4.140625 0-7.5-3.355469-7.5-7.5 0-4.140626 3.359375-7.5 7.5-7.5h145.964844c4.140625 0 7.5 3.359374 7.5 7.5 0 4.144531-3.359375 7.5-7.5 7.5zm0 0"/></g><path d="m365.363281 339.019531 20.203125-3.320312c19.417969-3.191407 37.351563-12.390625 51.265625-26.308594l22.898438-22.894531c18.824219-18.824219 30.96875-43.296875 34.578125-69.671875l6.742187-49.285157c.386719-2.824218-2.027343-5.238281-4.855469-4.851562l-49.28125 6.742188c-26.378906 3.609374-50.847656 15.753906-69.671874 34.578124l-22.894532 22.894532c-13.917968 13.917968-23.121094 31.847656-26.3125 51.269531l-3.316406 20.199219-17.871094-17.871094c-1.683594-1.683594-4.414062-1.683594-6.097656 0l-4.457031 4.460938c-10.6875 10.683593-16.625 25.222656-16.472657 40.335937l.582032 58.039063 58.039062.582031c15.113282.152343 29.652344-5.785157 40.335938-16.472657l4.460937-4.457031c1.683594-1.683593 1.683594-4.414062 0-6.097656zm0 0" fill="#fd6f71"/><path d="m496.195312 162.6875-49.28125 6.742188c-26.378906 3.609374-50.847656 15.753906-69.671874 34.578124l-22.894532 22.894532c-13.917968 13.917968-23.121094 31.847656-26.3125 51.269531l-3.316406 20.199219-17.875-17.871094c-1.683594-1.683594-4.410156-1.683594-6.09375 0l-4.460938 4.457031c-10.683593 10.6875-16.621093 25.226563-16.46875 40.335938l.578126 58.042969 21.421874-21.421876-.148437-14.765624c-.148437-15.113282 5.785156-29.652344 16.472656-40.335938l4.457031-4.460938c1.683594-1.679687 4.414063-1.679687 6.097657 0l16.339843 16.34375 2.132813-2.132812 2.71875-16.539062c3.191406-19.417969 12.390625-37.351563 26.308594-51.265626l22.894531-22.898437c18.828125-18.824219 43.296875-30.96875 69.671875-34.578125l29.589844-4.046875 2.695312-19.695313c.386719-2.824218-2.027343-5.238281-4.855469-4.851562zm0 0" fill="#e36465"/><path d="m218.214844 453.019531c-1.917969 0-3.835938-.730469-5.300782-2.195312-2.929687-2.929688-2.929687-7.675781 0-10.605469l229.285157-229.285156c2.929687-2.929688 7.679687-2.929688 10.605469 0 2.929687 2.929687 2.929687 7.675781 0 10.605468l-229.285157 229.285157c-1.464843 1.464843-3.382812 2.195312-5.304687 2.195312zm0 0" fill="#e36465"/><path d="m164.785156 433.511719v37.433593c0 22.671876-18.378906 41.054688-41.054687 41.054688h336.304687c22.675782 0 41.058594-18.382812 41.058594-41.054688v-37.433593c0-3.269531-2.648438-5.917969-5.917969-5.917969h-324.472656c-3.269531 0-5.917969 2.648438-5.917969 5.917969zm0 0" fill="#d9d7d8"/></svg>